# xmcd CD database file
#
# Track frame offsets:
#	150
#	13767
#	25475
#	37612
#	47105
#	56990
#	66395
#	78437
#	89252
#	101022
#	115492
#	126772
#	140957
#	152570
#
# Disc length: 2209 seconds
#
# Revision: 2
# Processed by: cddbd v1.5.1PL2 Copyright (c) Steve Scherf et al.
# Submitted via: jetAudio 5
#
DISCID=c4089f0e
DTITLE=Os Vips - Raridades cd 2
DYEAR=1900
DGENRE=
TTITLE0=Lá Muito Além (Five Hundred Miles)
TTITLE1=Prova de Amor
TTITLE2=Tiro e Queda
TTITLE3=O Pão Duro
TTITLE4=Beijos Para Amar
TTITLE5=Iá, Iá, Ô
TTITLE6=Ninguem Amou Como Eu Amei
TTITLE7=Encontrei um Novo Amor (Run and Hide)
TTITLE8=Eu, Ele e a Gatinha(To old to cut the mustard)
TTITLE9=Assim só Vai Chorar (I'm crying)
TTITLE10=Não Interessa Saber
TTITLE11=Não Vou Nunca Esquecer
TTITLE12=Submarino Amarelo (Yellow Submarine)
TTITLE13=Longe Tão Perto
EXTD=
EXTT0=
EXTT1=
EXTT2=
EXTT3=
EXTT4=
EXTT5=
EXTT6=
EXTT7=
EXTT8=
EXTT9=
EXTT10=
EXTT11=
EXTT12=
EXTT13=
PLAYORDER=
